<svg width="277" height="34" viewBox="0 0 277 34" fill="none" xmlns="http://www.w3.org/2000/svg">
<path d="M29.4376 6.6001H4.06602V29.0999H29.4376V33.6H0V2.1H29.4376V6.6001Z" fill="url(#paint0_linear_4_11)"/>
<path d="M45.4022 28.605L54.5508 8.8498H59.1452L47.7203 33.6H43.0849L31.5786 8.8498H36.2134L45.4022 28.605Z" fill="url(#paint1_linear_4_11)"/>
<path d="M85.9441 13.3048H66.7119V29.0548H85.9441V33.6H62.6056V8.76025H85.9441V13.3048Z" fill="url(#paint2_linear_4_11)"/>
<path d="M92.6352 8.89492C94.0989 8.98492 95.6442 9.345 97.2706 9.975C98.924 10.575 100.577 11.4148 102.231 12.4947C103.884 13.5747 105.457 14.835 106.948 16.275C108.465 17.715 109.807 19.3202 110.973 21.0902V8.8498H115.039V33.6H110.973C110.973 31.6201 110.62 29.7302 109.916 27.9303C109.238 26.1003 108.316 24.405 107.151 22.845C105.985 21.2851 104.684 19.8749 103.247 18.6149C101.811 17.355 100.333 16.3049 98.8155 15.4649C97.3247 14.625 95.8879 14.025 94.5055 13.665V33.6H90.4401V8.8498H92.6352V8.89492Z" fill="url(#paint3_linear_4_11)"/>
<path d="M143.989 13.3048H133.255V33.6H129.189V13.3048H118.414V8.8498H143.989V13.3048Z" fill="url(#paint4_linear_4_11)"/>
<path d="M184.279 20.6644C187.127 20.768 189 23.3347 189 25.9376V28.3213C189 30.9784 187.048 33.6 184.1 33.6H149.1V29.4H184.1C184.2 29.4 184.347 29.3588 184.504 29.1812C184.664 28.9995 184.8 28.7012 184.8 28.3213V25.9376C184.8 25.5578 184.664 25.2601 184.504 25.0783C184.347 24.9007 184.2 24.8596 184.1 24.8596H183.958L148.816 20.0724L149.384 15.9113L184.279 20.6644Z" fill="url(#paint5_linear_4_11)"/>
<path d="M195.26 16.1848C195.26 17.4447 195.654 18.5099 196.44 19.3799C197.253 20.2498 198.215 20.6848 199.326 20.6849H212.785V8.8498H216.851V26.3102C216.851 27.6601 216.485 28.8902 215.753 30.0002C215.021 31.0802 214.032 31.9502 212.785 32.6102C211.565 33.2702 210.21 33.6 208.719 33.6H191.235V29.0999H208.719C209.83 29.0999 210.779 28.8298 211.565 28.2898C212.378 27.7499 212.785 27.0901 212.785 26.3102V25.185H199.326C197.836 25.1849 196.48 24.7802 195.26 23.9702C194.041 23.1602 193.065 22.0799 192.333 20.73C191.601 19.35 191.235 17.8348 191.235 16.1848V8.8498H195.26V16.1848Z" fill="url(#paint6_linear_4_11)"/>
<path d="M224.699 8.89492C226.163 8.98495 227.708 9.34507 229.334 9.975C230.988 10.575 232.641 11.4147 234.295 12.4947C235.948 13.5747 237.52 14.835 239.011 16.275C240.529 17.715 241.87 19.3202 243.036 21.0902V8.8498H247.102V33.6H243.036C243.036 31.6201 242.684 29.7302 241.979 27.9303C241.302 26.1003 240.38 24.405 239.214 22.845C238.049 21.2851 236.748 19.8749 235.311 18.6149C233.875 17.3549 232.397 16.3049 230.879 15.4649C229.388 14.6251 227.952 14.025 226.57 13.665V33.6H222.504V8.8498H224.699V8.89492Z" fill="url(#paint7_linear_4_11)"/>
<path d="M276.5 13.3048H262.066C260.765 13.3048 259.64 13.6649 258.691 14.3849C257.742 15.0749 257.01 16.0053 256.495 17.1753C255.98 18.3451 255.723 19.6649 255.723 21.1347C255.723 22.6046 255.98 23.9399 256.495 25.1398C257.01 26.3398 257.742 27.2998 258.691 28.0198C259.64 28.7098 260.765 29.0548 262.066 29.0548H276.5V33.6H262.066C259.979 33.6 258.149 33.0448 256.577 31.9348C255.005 30.8248 253.785 29.3246 252.917 27.4347C252.05 25.5448 251.616 23.4445 251.616 21.1347C251.617 18.8248 252.05 16.7397 252.917 14.8798C253.785 13.0199 255.005 11.5348 256.577 10.4248C258.149 9.3148 259.979 8.76025 262.066 8.76025H276.5V13.3048Z" fill="url(#paint8_linear_4_11)"/>
<path d="M83.3417 23.3399H68.6232V18.7947H83.3417V23.3399Z" fill="url(#paint9_linear_4_11)"/>
<path d="M25.9813 20.0997H6.09902V15.6003H25.9813V20.0997Z" fill="url(#paint10_linear_4_11)"/>
<path d="M186.9 4.2H151.9C151.8 4.2 151.653 4.2412 151.496 4.41875C151.336 4.60055 151.2 4.89882 151.2 5.27871V7.25293C151.2 7.59681 151.313 7.87928 151.457 8.06572C151.6 8.25022 151.746 8.31281 151.846 8.32754L187.206 13.5304L186.594 17.6859L151.234 12.4824C148.618 12.0974 147 9.6877 147 7.25293V5.27871C147 2.62157 148.952 3.75881e-06 151.9 0H186.9V4.2Z" fill="url(#paint11_linear_4_11)"/>
<defs>
<linearGradient id="paint0_linear_4_11" x1="178.15" y1="-40.6" x2="70.7" y2="84" gradientUnits="userSpaceOnUse">
<stop stop-color="#4ACCBD" stop-opacity="0.78"/>
<stop offset="0.333483" stop-color="#5C90FF"/>
<stop offset="0.818394" stop-color="#6DA7FF"/>
</linearGradient>
<linearGradient id="paint1_linear_4_11" x1="178.15" y1="-40.6" x2="70.7" y2="84" gradientUnits="userSpaceOnUse">
<stop stop-color="#4ACCBD" stop-opacity="0.78"/>
<stop offset="0.333483" stop-color="#5C90FF"/>
<stop offset="0.818394" stop-color="#6DA7FF"/>
</linearGradient>
<linearGradient id="paint2_linear_4_11" x1="178.15" y1="-40.6" x2="70.7" y2="84" gradientUnits="userSpaceOnUse">
<stop stop-color="#4ACCBD" stop-opacity="0.78"/>
<stop offset="0.333483" stop-color="#5C90FF"/>
<stop offset="0.818394" stop-color="#6DA7FF"/>
</linearGradient>
<linearGradient id="paint3_linear_4_11" x1="178.15" y1="-40.6" x2="70.7" y2="84" gradientUnits="userSpaceOnUse">
<stop stop-color="#4ACCBD" stop-opacity="0.78"/>
<stop offset="0.333483" stop-color="#5C90FF"/>
<stop offset="0.818394" stop-color="#6DA7FF"/>
</linearGradient>
<linearGradient id="paint4_linear_4_11" x1="178.15" y1="-40.6" x2="70.7" y2="84" gradientUnits="userSpaceOnUse">
<stop stop-color="#4ACCBD" stop-opacity="0.78"/>
<stop offset="0.333483" stop-color="#5C90FF"/>
<stop offset="0.818394" stop-color="#6DA7FF"/>
</linearGradient>
<linearGradient id="paint5_linear_4_11" x1="178.15" y1="-40.6" x2="70.7" y2="84" gradientUnits="userSpaceOnUse">
<stop stop-color="#4ACCBD" stop-opacity="0.78"/>
<stop offset="0.333483" stop-color="#5C90FF"/>
<stop offset="0.818394" stop-color="#6DA7FF"/>
</linearGradient>
<linearGradient id="paint6_linear_4_11" x1="178.15" y1="-40.6" x2="70.7" y2="84" gradientUnits="userSpaceOnUse">
<stop stop-color="#4ACCBD" stop-opacity="0.78"/>
<stop offset="0.333483" stop-color="#5C90FF"/>
<stop offset="0.818394" stop-color="#6DA7FF"/>
</linearGradient>
<linearGradient id="paint7_linear_4_11" x1="178.15" y1="-40.6" x2="70.7" y2="84" gradientUnits="userSpaceOnUse">
<stop stop-color="#4ACCBD" stop-opacity="0.78"/>
<stop offset="0.333483" stop-color="#5C90FF"/>
<stop offset="0.818394" stop-color="#6DA7FF"/>
</linearGradient>
<linearGradient id="paint8_linear_4_11" x1="178.15" y1="-40.6" x2="70.7" y2="84" gradientUnits="userSpaceOnUse">
<stop stop-color="#4ACCBD" stop-opacity="0.78"/>
<stop offset="0.333483" stop-color="#5C90FF"/>
<stop offset="0.818394" stop-color="#6DA7FF"/>
</linearGradient>
<linearGradient id="paint9_linear_4_11" x1="178.15" y1="-40.6" x2="70.7" y2="84" gradientUnits="userSpaceOnUse">
<stop stop-color="#4ACCBD" stop-opacity="0.78"/>
<stop offset="0.333483" stop-color="#5C90FF"/>
<stop offset="0.818394" stop-color="#6DA7FF"/>
</linearGradient>
<linearGradient id="paint10_linear_4_11" x1="178.15" y1="-40.6" x2="70.7" y2="84" gradientUnits="userSpaceOnUse">
<stop stop-color="#4ACCBD" stop-opacity="0.78"/>
<stop offset="0.333483" stop-color="#5C90FF"/>
<stop offset="0.818394" stop-color="#6DA7FF"/>
</linearGradient>
<linearGradient id="paint11_linear_4_11" x1="178.15" y1="-40.6" x2="70.7" y2="84" gradientUnits="userSpaceOnUse">
<stop stop-color="#4ACCBD" stop-opacity="0.78"/>
<stop offset="0.333483" stop-color="#5C90FF"/>
<stop offset="0.818394" stop-color="#6DA7FF"/>
</linearGradient>
</defs>
</svg>
