<svg width="42" height="34" viewBox="0 0 42 34" fill="none" xmlns="http://www.w3.org/2000/svg">
<path d="M37.2791 20.6644C40.1271 20.768 41.9999 23.3347 42 25.9376V28.3213C42 30.9784 40.0484 33.6 37.1 33.6H2.09999V29.4H37.1C37.2003 29.4 37.3475 29.3588 37.504 29.1813C37.6642 28.9995 37.8 28.7012 37.8 28.3213V25.9376C37.7999 25.5578 37.6641 25.2601 37.504 25.0783C37.3475 24.9007 37.2003 24.8596 37.1 24.8596H36.9578L1.8163 20.0724L2.38368 15.9113L37.2791 20.6644Z" fill="url(#paint0_linear_2_10)"/>
<path d="M39.9 4.2H4.89999C4.79973 4.2 4.65251 4.2412 4.49599 4.41875C4.33583 4.60055 4.2 4.89882 4.2 5.27871V7.25293C4.2 7.59681 4.3127 7.87928 4.45703 8.06572C4.59986 8.25023 4.74592 8.31281 4.84599 8.32754L40.2056 13.5304L39.5944 17.6859L4.23418 12.4824C1.61814 12.0974 0 9.6877 0 7.25293V5.27871C0 2.62157 1.95159 3.75881e-06 4.89999 0H39.9V4.2Z" fill="url(#paint1_linear_2_10)"/>
<defs>
<linearGradient id="paint0_linear_2_10" x1="21" y1="0" x2="-3" y2="39.5" gradientUnits="userSpaceOnUse">
<stop stop-color="#50BCFF"/>
<stop offset="1" stop-color="#3A3099"/>
</linearGradient>
<linearGradient id="paint1_linear_2_10" x1="21" y1="0" x2="-3" y2="39.5" gradientUnits="userSpaceOnUse">
<stop stop-color="#50BCFF"/>
<stop offset="1" stop-color="#3A3099"/>
</linearGradient>
</defs>
</svg>
